:SAMPLES-PER-SECOND 30
:FULLY-SPECIFIED
:DEGREES
1329
root  69.218 39.8652 -23.968 6.36337 -39.4019 3.98926
RightUpLeg  -30.292 -33.8383 -2.98521
RightLeg  20.9641 -3.50254 -1.77604
RightFoot  -3.25 -0.330754 4.358
RightToes  0.00048216 0.542163 -0.142577
Spine  37.9388 1.1963 -3.27531
Spine1  11.8833 0.576283 -0.525637
HEad  -42.965 -20.5104 25.9333
LeftShoulder1  12.1805 -18.0896 -49.2412
LeftArm  -26.57 -0.162002 -23.6648
LeftForeArm  7.11954 -46.7285 -11.4061
LeftHand  -0.25398 0.0180481 5.50724
RightShoulder  6.17903 11.7067 34.6624
RightArm  -9.24087 18.9903 28.3072
RightForeArm  -6.16388 50.0259 13.8844
RightHand  -0.253237 -7.82168 8.80418
LeftUpLeg  -14.3813 7.3522 1.83024
LeftLeg  0.743444 38.267 -7.74398
LeftFoot  3.70461 -0.230591 1.57797
LeftToes  1.06244e-005 4.65855e-005 -8.18506e-006
1330
root  68.5669 39.8923 -24.0628 6.27788 -41.2144 4.56586
RightUpLeg  -28.4421 -35.4792 -2.90503
RightLeg  16.2878 -7.49187 -1.88239
RightFoot  -3.29507 -0.297723 3.92483
RightToes  0.00048216 0.542163 -0.142577
Spine  35.8207 1.21001 -3.93534
Spine1  11.5904 0.259212 -0.0214848
HEad  -43.0202 -20.5343 25.4087
LeftShoulder1  12.0374 -17.9039 -49.0855
LeftArm  -24.8491 2.62887 -23.4157
LeftForeArm  7.55207 -48.3634 -12.081
LeftHand  -0.25398 0.0180481 5.50724
RightShoulder  6.23028 11.5269 35.4765
RightArm  -9.32561 13.6294 27.8012
RightForeArm  -5.37386 54.2259 16.1881
RightHand  -0.29182 -8.65224 7.71659
LeftUpLeg  -12.9163 7.00382 2.29836
LeftLeg  -1.711 40.1412 -8.48335
LeftFoot  4.28053 -0.00368614 -0.167261
LeftToes  1.06244e-005 4.65855e-005 -8.18506e-006
1331
root  67.8198 39.9247 -24.2413 6.21797 -42.4695 4.86108
RightUpLeg  -24.3362 -31.0982 -6.20549
RightLeg  12.6879 -18.0304 -0.335726
RightFoot  -1.85213 -0.25251 2.89937
RightToes  0.00048216 0.542163 -0.142577
Spine  34.3162 1.12981 -4.27838
Spine1  10.9974 -0.264311 1.0056
HEad  -43.1706 -20.7646 24.9438
LeftShoulder1  11.9456 -17.8597 -48.8107
LeftArm  -22.7581 5.41564 -22.8114
LeftForeArm  7.54417 -50.4811 -13.0767
LeftHand  -0.25398 0.0180481 5.50724
RightShoulder  6.14145 11.1673 35.8793
RightArm  -9.53777 8.35392 27.7819
RightForeArm  -3.86718 58.338 18.9748
RightHand  -0.302074 -9.2981 6.64264
LeftUpLeg  -11.5367 7.25999 3.23687
LeftLeg  -3.54419 40.856 -9.37053
LeftFoot  4.57946 0.175052 -1.45097
LeftToes  1.06244e-005 4.65855e-005 -8.18506e-006
1332
root  66.9876 39.9647 -24.4638 6.13548 -43.5346 4.79071
RightUpLeg  -21.2833 -26.7564 -8.19442
RightLeg  10.7957 -25.4652 1.63898
RightFoot  -0.136093 -0.222473 2.24812
RightToes  0.00048216 0.542163 -0.142577
Spine  33.2501 0.763668 -4.05441
Spine1  10.3029 -0.824919 1.66599
HEad  -43.4353 -21.0097 24.6707
LeftShoulder1  11.8172 -17.8627 -48.2739
LeftArm  -20.7755 8.16136 -22.0243
LeftForeArm  7.75962 -52.9861 -14.368
LeftHand  -0.25398 0.0180481 5.50724
RightShoulder  6.0923 10.8838 36.3523
RightArm  -9.73169 3.55537 27.9345
RightForeArm  -2.65157 61.8197 22.0198
RightHand  -0.28454 -10.0833 5.01623
LeftUpLeg  -10.2238 7.79254 4.56981
LeftLeg  -4.3719 41.1348 -9.62856
LeftFoot  5.0157 0.388279 -2.90437
LeftToes  1.06244e-005 4.65855e-005 -8.18506e-006
1333
root  66.0867 40.0036 -24.6748 5.89485 -45.0871 4.28412
RightUpLeg  -19.7225 -26.0599 -7.49296
RightLeg  10.4886 -25.2261 2.85491
RightFoot  0.129406 -0.21086 2.10642
RightToes  0.00048216 0.542163 -0.142577
Spine  32.3186 0.229308 -3.37597
Spine1  9.73487 -1.20849 1.63562
HEad  -43.397 -21.0048 24.3442
LeftShoulder1  11.5908 -17.7446 -47.6025
LeftArm  -19.1582 10.6046 -21.2917
LeftForeArm  7.78279 -55.1422 -15.6396
LeftHand  -0.25398 0.0180481 5.50724
RightShoulder  6.04289 10.6121 36.805
RightArm  -9.31331 -0.182272 28.1561
RightForeArm  -2.39738 64.3073 24.8482
RightHand  -0.221546 -11.034 2.8023
LeftUpLeg  -8.59767 8.73964 6.39386
LeftLeg  -3.88905 41.9425 -9.06297
LeftFoot  5.05886 0.754967 -5.47343
LeftToes  1.06244e-005 4.65855e-005 -8.18506e-006
1334
root  65.1309 40.0458 -24.8707 5.33936 -47.1421 3.45142
RightUpLeg  -18.016 -25.7337 -6.1188
RightLeg  10.6162 -22.6646 3.48514
RightFoot  -1.02094 -0.152137 1.59692
RightToes  0.00048216 0.542163 -0.142577
Spine  31.5487 -0.23153 -2.81367
Spine1  9.37031 -1.60027 1.79149
HEad  -42.0152 -20.4985 22.8524
LeftShoulder1  11.2637 -17.4382 -46.9231
LeftArm  -17.6824 12.8667 -20.6867
LeftForeArm  7.06775 -56.7739 -16.7879
LeftHand  -0.25398 0.0180481 5.50724
RightShoulder  5.85091 10.2525 36.5345
RightArm  -7.82387 -2.74939 28.647
RightForeArm  -2.55656 66.0379 27.2778
RightHand  -0.130483 -11.9194 0.754227
LeftUpLeg  -6.59647 10.2154 8.66393
LeftLeg  -1.84537 42.6061 -7.74181
LeftFoot  3.49257 0.955594 -7.50105
LeftToes  1.06244e-005 4.65855e-005 -8.18506e-006
1335
root  64.1464 40.0697 -25.0778 4.39616 -48.9415 3.06012
RightUpLeg  -16.1341 -23.9525 -5.42746
RightLeg  11.1035 -22.0571 3.50968
RightFoot  -2.59314 -0.0741467 0.738516
RightToes  0.00048216 0.542163 -0.142577
Spine  30.8406 -0.672646 -2.96714
Spine1  9.03044 -2.39051 2.68752
HEad  -39.3748 -19.6557 20.3234
LeftShoulder1  10.9003 -17.0542 -46.2414
LeftArm  -15.8808 15.2392 -20.0028
LeftForeArm  6.16928 -58.3652 -18.0477
LeftHand  -0.25398 0.0180481 5.50724
RightShoulder  5.60125 9.99467 35.5254
RightArm  -5.55133 -4.70884 29.1056
RightForeArm  -2.38679 67.6028 29.839
RightHand  -0.0444212 -12.6005 -0.724452
LeftUpLeg  -5.62766 11.5032 10.294
LeftLeg  2.53454 40.6566 -4.79643
LeftFoot  0.160425 0.643383 -6.27776
LeftToes  1.06244e-005 4.65855e-005 -8.18506e-006
1336
root  63.1908 40.0662 -25.2809 3.19432 -49.9727 3.29236
RightUpLeg  -14.557 -22.1661 -5.22955
RightLeg  12.1827 -22.5981 3.09267
RightFoot  -4.06337 -0.0381246 0.171852
RightToes  0.00048216 0.542163 -0.142577
Spine  30.1459 -1.30428 -3.22566
Spine1  8.51529 -3.43761 3.73351
HEad  -37.5172 -19.203 19.1518
LeftShoulder1  10.6529 -16.8278 -45.6789
LeftArm  -13.6551 17.3335 -19.1486
LeftForeArm  5.96127 -60.0432 -19.4475
LeftHand  -0.25398 0.0180481 5.50724
RightShoulder  5.44104 9.96091 34.4571
RightArm  -3.46451 -6.6955 28.9235
RightForeArm  -1.69309 69.3886 33.3125
RightHand  0.0472699 -13.1907 -2.03922
LeftUpLeg  -6.84689 14.6004 9.84258
LeftLeg  8.92749 31.0969 -0.158575
LeftFoot  -3.55483 0.207914 -2.74831
LeftToes  1.06244e-005 4.65855e-005 -8.18506e-006
1337
root  62.2959 40.0161 -25.4228 2.10561 -50.7099 3.23669
RightUpLeg  -13.0306 -21.1247 -4.91947
RightLeg  13.801 -22.6049 2.57907
RightFoot  -5.79379 -0.0441371 0.103815
RightToes  0.00048216 0.542163 -0.142577
Spine  29.4915 -1.98295 -2.37099
Spine1  8.11409 -4.05511 4.24945
HEad  -36.4914 -19.0847 18.6068
LeftShoulder1  10.6333 -16.8953 -45.4338
LeftArm  -11.4807 18.2474 -18.4905
LeftForeArm  6.36453 -61.3021 -20.5542
LeftHand  -0.25398 0.0180481 5.50724
RightShoulder  5.31911 9.93582 33.6317
RightArm  -2.40104 -8.82599 28.1234
RightForeArm  -0.45948 71.2589 37.862
RightHand  0.176307 -13.8389 -3.64993
LeftUpLeg  -9.70533 20.5928 7.55164
LeftLeg  15.8394 13.3499 3.56221
LeftFoot  -6.45658 0.0854466 -1.25987
LeftToes  1.06244e-005 4.65855e-005 -8.18506e-006
1338
root  61.4196 39.9442 -25.4806 1.2093 -52.1126 2.65833
RightUpLeg  -11.1225 -19.5805 -4.43554
RightLeg  15.1355 -22.4385 2.29221
RightFoot  -7.76819 -0.0607198 0.262862
RightToes  0.00048216 0.542163 -0.142577
Spine  28.7538 -2.2541 -0.603106
Spine1  8.20035 -3.78672 4.03561
HEad  -35.8823 -19.1307 18.3087
LeftShoulder1  10.7547 -17.0884 -45.5237
LeftArm  -9.84951 17.8032 -18.4477
LeftForeArm  6.8406 -61.8934 -21.0853
LeftHand  -0.25398 0.0180481 5.50724
RightShoulder  5.15203 9.75903 32.9033
RightArm  -2.39389 -10.8296 27.2053
RightForeArm  1.25768 72.8102 42.6875
RightHand  0.329095 -14.419 -5.36141
LeftUpLeg  -12.0005 17.1286 6.85033
LeftLeg  22.8557 4.70305 2.65694
LeftFoot  -7.74282 0.143538 -3.04019
LeftToes  1.06244e-005 4.65855e-005 -8.18506e-006
1339
root  60.5023 39.8939 -25.4824 0.406158 -54.5112 2.30066
RightUpLeg  -9.11951 -16.9663 -3.96266
RightLeg  15.5784 -22.5896 2.29197
RightFoot  -9.47761 -0.0748346 0.669531
RightToes  0.00048216 0.542163 -0.142577
Spine  27.6635 -1.98675 0.936893
Spine1  8.48583 -2.879 3.32581
HEad  -35.2654 -19.5607 18.2026
LeftShoulder1  10.8359 -17.1147 -45.8198
LeftArm  -8.86837 16.9153 -18.9153
LeftForeArm  7.46847 -62.2747 -21.4054
LeftHand  -0.25398 0.0180481 5.50724
RightShoulder  5.00564 9.57067 32.3446
RightArm  -2.85471 -12.4337 26.3091
RightForeArm  3.03998 73.8464 46.7064
RightHand  0.44397 -14.7079 -6.59412
LeftUpLeg  -13.9394 14.3009 5.92749
LeftLeg  28.2386 0.193945 0.491943
LeftFoot  -7.49882 0.229966 -5.49039
LeftToes  1.06244e-005 4.65855e-005 -8.18506e-006
1340
root  59.5354 39.8872 -25.4617 -0.385666 -57.4029 2.64996
RightUpLeg  -7.32862 -14.4866 -3.63031
RightLeg  15.112 -22.251 2.66792
RightFoot  -10.6997 -0.0801155 1.35843
RightToes  0.00048216 0.542163 -0.142577
Spine  26.227 -1.50228 1.73557
Spine1  8.51419 -1.90273 2.33296
HEad  -34.1976 -19.6442 17.4809
LeftShoulder1  10.8198 -16.9364 -46.1631
LeftArm  -8.56087 16.5508 -19.5611
LeftForeArm  8.55793 -62.965 -22.0146
LeftHand  -0.25398 0.0180481 5.50724
RightShoulder  4.9328 9.45691 32.1178
RightArm  -3.27265 -13.3976 25.3982
RightForeArm  4.39254 74.4616 49.5348
RightHand  0.496762 -14.8285 -7.14142
LeftUpLeg  -15.9495 12.742 3.98688
LeftLeg  30.7994 -0.244279 0.19639
LeftFoot  -6.94933 0.273612 -6.06074
LeftToes  1.06244e-005 4.65855e-005 -8.18506e-006
1341
root  58.5506 39.9071 -25.4302 -1.12234 -60.262 3.25488
RightUpLeg  -5.52508 -12.9256 -3.35435
RightLeg  14.128 -20.9787 3.34633
RightFoot  -11.6205 -0.0744979 1.88109
RightToes  0.00048216 0.542163 -0.142577
Spine  24.7827 -1.15484 2.1558
Spine1  8.33461 -1.18366 1.20975
HEad  -32.9691 -19.065 16.4059
LeftShoulder1  10.782 -16.7649 -46.3986
LeftArm  -9.08037 16.9406 -20.3135
LeftForeArm  9.99449 -64.0198 -23.0427
LeftHand  -0.25398 0.0180481 5.50724
RightShoulder  4.8641 9.30342 32.0369
RightArm  -3.50683 -13.4783 24.7651
RightForeArm  5.19201 74.8284 51.4543
RightHand  0.535316 -15.2249 -7.32141
LeftUpLeg  -17.838 11.6552 1.67919
LeftLeg  30.5394 1.91526 1.54764
LeftFoot  -6.74814 0.241682 -5.01587
LeftToes  1.06244e-005 4.65855e-005 -8.18506e-006
